# xmcd CD database file
#
# Track frame offsets:
#	150
#	15976
#	32356
#	53647
#	71570
#	84366
#	100408
#	114987
#	136748
#	154960
#
# Disc length: 2248 seconds
#
# Revision: 0
# Processed by: cddbd v1.5.2PL0 Copyright (c) Steve Scherf et al.
# Submitted via: CDex 1.50
#
DISCID=6e08c60a
DTITLE=Phillip Glyn - Phillip Glyn
DYEAR=2004
DGENRE=Country
TTITLE0=Grandpa
TTITLE1=On My Way
TTITLE2=Bourbon Street
TTITLE3=Hello Twins
TTITLE4=Shootin Tequila
TTITLE5=Risky Business
TTITLE6=Rydin High Layin Low
TTITLE7=Till The Cows Come Home
TTITLE8=Rebel Man
TTITLE9=Tailgate Talkin'
EXTD=YEAR: 2004
EXTT0=
EXTT1=
EXTT2=
EXTT3=
EXTT4=
EXTT5=
EXTT6=
EXTT7=
EXTT8=
EXTT9=
PLAYORDER=
